<svg width="719" height="335" viewBox="0 0 719 335" fill="none" xmlns="http://www.w3.org/2000/svg">
<g clip-path="url(#clip0_46_771)">
<mask id="mask0_46_771" style="mask-type:luminance" maskUnits="userSpaceOnUse" x="0" y="0" width="719" height="337">
<path d="M719 0H0V337H719V0Z" fill="white"/>
</mask>
<g mask="url(#mask0_46_771)">
<path d="M420.184 143.478C420.184 143.478 479.696 149.813 531.136 242.505" stroke="#323232" stroke-width="5" stroke-linecap="round" stroke-linejoin="round"/>
<path d="M469.364 144C469.364 144 485.551 171.499 490.297 185.872M414.268 162.619C414.268 162.619 439.433 154.161 457.777 159.283M457.942 189.125C457.942 189.125 490.112 192.208 504.759 202.369M510.84 175.56C510.84 175.56 514.804 198.308 514.332 216" stroke="#323232" stroke-width="5" stroke-linecap="round" stroke-linejoin="round"/>
<path d="M417.657 148.499C421.39 148.499 424.416 146.017 424.416 142.956C424.416 139.894 421.39 137.412 417.657 137.412C413.924 137.412 410.898 139.894 410.898 142.956C410.898 146.017 413.924 148.499 417.657 148.499Z" fill="#DF7DAB"/>
<path d="M411.494 169.039C415.227 169.039 418.253 166.557 418.253 163.496C418.253 160.434 415.227 157.952 411.494 157.952C407.761 157.952 404.735 160.434 404.735 163.496C404.735 166.557 407.761 169.039 411.494 169.039Z" fill="#DF7DAB"/>
<path d="M467.535 146.898C471.268 146.898 474.294 144.416 474.294 141.355C474.294 138.293 471.268 135.811 467.535 135.811C463.802 135.811 460.776 138.293 460.776 141.355C460.776 144.416 463.802 146.898 467.535 146.898Z" fill="#DF7DAB"/>
<path d="M455.086 192.966C458.818 192.966 461.844 190.484 461.844 187.423C461.844 184.361 458.818 181.879 455.086 181.879C451.353 181.879 448.327 184.361 448.327 187.423C448.327 190.484 451.353 192.966 455.086 192.966Z" fill="#DF7DAB"/>
<path d="M509.792 179.217C513.525 179.217 516.55 176.735 516.55 173.673C516.55 170.611 513.525 168.129 509.792 168.129C506.059 168.129 503.033 170.611 503.033 173.673C503.033 176.735 506.059 179.217 509.792 179.217Z" fill="#DF7DAB"/>
<path d="M399.127 289.399C397.998 290.208 388.158 297.436 387.993 307.765C387.87 315.668 393.437 321.397 395.039 322.998C402.188 330.142 407.981 327.918 420.122 336.023C428.606 341.684 427.189 343.723 434.194 347.161C437.029 348.542 447.691 353.766 460.304 350.733C463.879 349.873 469.692 347.75 480.395 335.096C496.028 316.611 493.173 309.821 506.258 297.925C512.154 292.55 519.365 285.995 531.218 283.956C545.002 281.58 560.8 286.046 569.756 292.364C571.051 293.274 571.79 293.931 573.598 294.993C582.103 299.93 592.087 300.638 597.407 300.351C614.766 299.408 628.365 285.49 632.987 273.054C633.994 270.341 639.458 255.631 630.687 245.336C626.516 240.433 621.956 239.86 615.074 231.586C611.068 226.767 611.315 225.386 607.391 220.769C604.227 217.028 599.482 211.451 591.902 207.963C579.679 202.352 561.231 202.739 550.672 207.643C549.173 208.333 546.153 209.917 541.839 210.052C535.696 210.254 526.39 206.143 524.809 205.216C515.996 200.111 500.917 196.707 485.51 196.606C467.494 196.488 451.738 204.424 442.37 211.417C423.245 225.672 412.932 247.644 413.569 266.533C413.651 269.01 414.576 275.396 409.995 280.805C407.386 283.889 403.647 286.18 399.107 289.416L399.127 289.399Z" fill="#01614A"/>
<path d="M447.074 314.337C447.074 314.337 508.641 342.476 539.25 371.981C539.25 371.981 490.605 306.569 459.236 285.978" stroke="#323232" stroke-width="5" stroke-linecap="round" stroke-linejoin="round"/>
<path d="M482.798 264.764L539.25 371.981L522.096 252.582" stroke="#323232" stroke-width="5" stroke-linecap="round" stroke-linejoin="round"/>
<path d="M574.583 268.016L538.921 370.953L605.562 280.519" stroke="#323232" stroke-width="5" stroke-linecap="round" stroke-linejoin="round"/>
<path d="M451.306 333.327L478.607 330.428" stroke="#323232" stroke-width="5" stroke-linecap="round" stroke-linejoin="round"/>
<path d="M457.325 302.677L485.284 308.22" stroke="#323232" stroke-width="5" stroke-linecap="round" stroke-linejoin="round"/>
<path d="M512.482 272.65L510.88 317.403" stroke="#323232" stroke-width="5" stroke-linecap="round" stroke-linejoin="round"/>
<path d="M561.642 267.494L569.304 283.939" stroke="#323232" stroke-width="5" stroke-linecap="round" stroke-linejoin="round"/>
<path d="M550.117 262.253L529.308 302.121" stroke="#323232" stroke-width="5" stroke-linecap="round" stroke-linejoin="round"/>
<path d="M633.541 124.555C633.541 124.555 744.123 157.682 707.947 360.388" stroke="#323232" stroke-width="5" stroke-linecap="round" stroke-linejoin="round"/>
<path d="M700.943 155.408C700.943 155.408 722.595 199.167 713.371 250.728M642.211 158.929C642.211 158.929 687.857 172.409 703.593 206.093" stroke="#323232" stroke-width="5" stroke-linecap="round" stroke-linejoin="round"/>
<path d="M627.44 134.985C635.904 134.985 642.765 129.358 642.765 122.415C642.765 115.473 635.904 109.845 627.44 109.845C618.976 109.845 612.115 115.473 612.115 122.415C612.115 129.358 618.976 134.985 627.44 134.985Z" fill="#659F26"/>
<path d="M701.579 163.192C707.978 163.192 713.166 158.938 713.166 153.689C713.166 148.44 707.978 144.186 701.579 144.186C695.18 144.186 689.993 148.44 689.993 153.689C689.993 158.938 695.18 163.192 701.579 163.192Z" fill="#659F26"/>
<path d="M644.799 173.471C651.198 173.471 656.385 169.216 656.385 163.968C656.385 158.719 651.198 154.464 644.799 154.464C638.4 154.464 633.213 158.719 633.213 163.968C633.213 169.216 638.4 173.471 644.799 173.471Z" fill="#659F26"/>
<path d="M692.623 280.216C692.623 280.216 714.09 311.455 710.824 341.364" stroke="#323232" stroke-width="5" stroke-linecap="round" stroke-linejoin="round"/>
<path d="M689.891 289.517C696.29 289.517 701.477 285.262 701.477 280.013C701.477 274.765 696.29 270.51 689.891 270.51C683.492 270.51 678.305 274.765 678.305 280.013C678.305 285.262 683.492 289.517 689.891 289.517Z" fill="#659F26"/>
<path d="M694.554 231.064C694.554 231.064 715.754 256.407 715.138 291.084" stroke="#323232" stroke-width="5" stroke-linecap="round" stroke-linejoin="round"/>
<path d="M694.286 238.006C700.685 238.006 705.873 233.751 705.873 228.503C705.873 223.254 700.685 219 694.286 219C687.887 219 682.7 223.254 682.7 228.503C682.7 233.751 687.887 238.006 694.286 238.006Z" fill="#659F26"/>
<path d="M328.049 360.354L326.118 355.805C326.118 355.805 277.349 289.382 258.306 307.748C239.283 326.132 314.963 344.431 328.049 360.337V360.354Z" fill="#219D9B"/>
<path d="M327.453 358.4C327.453 358.4 296.31 265.792 271.864 282.945C247.418 300.099 305.514 326.789 327.453 358.4Z" fill="#219D9B"/>
<path d="M329.364 352.451C329.364 352.451 332.774 265.775 307.958 268.437C283.142 271.116 313.854 339.376 328.049 360.354L329.364 352.451Z" fill="#219D9B"/>
<path d="M327.946 357.136C327.946 357.136 330.123 329.822 339.121 309.821C348.119 289.82 351.303 276.222 342.285 273.947C333.267 271.672 310.423 284.714 327.946 357.119V357.136Z" fill="#219D9B"/>
<path d="M274.391 319.678C274.391 319.678 315.353 342.257 327.391 358.383C327.391 358.383 297.173 310.781 286.018 299.694" stroke="#323232" stroke-width="5" stroke-miterlimit="10"/>
<path d="M311.759 295.734C311.759 295.734 320.099 342.712 327.392 358.383C327.392 358.383 323.427 318.145 334.027 297.638" stroke="#323232" stroke-width="5" stroke-miterlimit="10"/>
<path d="M81.8637 335.147C81.8637 335.147 103.126 302.205 86.6501 266.314C70.1748 230.424 47.023 223.094 47.023 223.094C47.023 223.094 36.0942 272.178 47.3722 294.488C58.6502 316.797 81.8637 335.13 81.8637 335.13V335.147ZM118.492 315.853C118.492 315.853 152.737 281.041 187.413 272.027C222.089 263.012 259.169 264.141 266.544 259.709C266.544 259.709 262.209 301.581 202.43 313.73C142.65 325.896 118.492 315.853 118.492 315.853ZM124.634 269.55C124.634 269.55 151.545 237.99 144.684 203.767C137.822 169.545 107.563 157.227 103.475 142.079C103.475 142.079 87.287 193.354 89.9165 218.393C92.546 243.432 124.634 269.55 124.634 269.55ZM163.46 249.7C163.46 249.7 184.804 199.892 214.201 179.486C243.618 159.064 287.724 150.218 287.724 150.218C287.724 150.218 284.375 195.763 252.184 216.624C219.973 237.484 163.46 249.7 163.46 249.7Z" fill="#01614A"/>
<path d="M88.7451 356.529C111.733 270.965 241.584 189.327 241.584 189.327" stroke="#323232" stroke-width="5" stroke-miterlimit="10"/>
<path d="M115.739 213.338C115.739 213.338 116.499 251.857 127.88 287.208M67.71 281.311C67.71 281.311 83.528 343.15 91.211 364.213M199.657 292.701C199.657 292.701 138.46 306.451 104.194 321.11" stroke="#323232" stroke-width="5" stroke-miterlimit="10"/>
<path d="M23.1523 343.976C23.1523 343.976 100.619 330.496 97.8462 318.196C95.0729 305.912 57.6027 311.456 23.1523 343.976Z" fill="#219D9B"/>
<path d="M23.1524 343.976C23.1524 343.976 57.952 285.001 37.9021 282.019C17.8318 279.053 14.586 323.756 23.1524 343.976ZM47.7627 310.647C47.7627 310.647 129.318 305.356 124.675 290.039C119.724 273.627 75.4339 286.079 47.7627 310.647Z" fill="#219D9B"/>
<path d="M47.7626 310.647C47.7626 310.647 91.9092 257.704 69.045 253.171C46.1808 248.655 47.7626 310.647 47.7626 310.647ZM78.9467 280.586C78.9467 280.586 145.526 281.564 148.443 270.83C151.36 260.097 114.63 255.952 78.9467 280.586Z" fill="#219D9B"/>
<path d="M78.9873 280.586C78.9873 280.586 89.0122 227.425 106.309 230.491C129.831 234.67 78.9873 280.586 78.9873 280.586ZM108.487 258.715C108.487 258.715 173.258 243.938 165.041 229.666C156.824 215.394 108.487 258.715 108.487 258.715Z" fill="#219D9B"/>
<path d="M146.492 239.152C146.492 239.152 59.246 270.965 12.3467 362.764" stroke="#323232" stroke-width="5" stroke-miterlimit="10"/>
<path d="M92.9569 255.008L79.2959 280.081C79.2959 280.081 100.332 274.335 118.82 271.656M57.8697 280.283L48.0092 310.242C48.0092 310.242 75.7831 299.222 87.7596 297.352M26.9733 312.5C26.9733 312.5 23.707 333.613 23.1729 343.976C23.1729 343.976 44.4963 331.44 58.4038 328.272" stroke="#323232" stroke-width="5" stroke-miterlimit="10"/>
<path d="M2.48587 349.823C2.48587 349.823 0.719191 314.59 30.8761 271.42C63.6214 224.526 173.608 195.393 154.133 164.861C134.679 134.328 68.1203 180.194 30.2598 254.57C-5.23824 324.346 -4.14947 348.93 -4.14947 348.93L2.50642 349.823H2.48587ZM-8.01153 324.733C-8.01153 324.733 -4.14947 287.967 18.0984 247.324C38.4359 210.153 66.9288 174.465 67.5246 139.383C68.1203 104.302 16.8864 115.204 16.4139 152.56C15.9209 189.933 23.9121 187.743 14.7294 221.156C5.54676 254.57 -10.8875 292.921 -11.3806 325.239C-11.8736 357.557 -7.99098 324.75 -7.99098 324.75L-8.01153 324.733Z" fill="#659F26"/>
<path d="M114.095 184.036C114.095 184.036 14.7497 240.938 -4.70438 355.72M37.4701 156.671C37.4701 156.671 35.5391 188.299 25.1444 215.747C17.7284 235.361 -11.8327 294.252 -9.65521 348.475" stroke="#323232" stroke-width="5" stroke-miterlimit="10"/>
<path d="M160.461 292.448L184.948 357.051" stroke="#323232" stroke-width="5" stroke-miterlimit="10"/>
<path d="M180.798 310.68L176.156 333.782L155.9 326.924" stroke="#323232" stroke-width="5" stroke-miterlimit="10"/>
<path d="M157.318 295.01C163.785 295.01 169.027 290.71 169.027 285.405C169.027 280.101 163.785 275.801 157.318 275.801C150.851 275.801 145.608 280.101 145.608 285.405C145.608 290.71 150.851 295.01 157.318 295.01Z" fill="#659F26"/>
<path d="M149.182 331.17C154.798 331.17 159.351 327.436 159.351 322.829C159.351 318.223 154.798 314.488 149.182 314.488C143.566 314.488 139.014 318.223 139.014 322.829C139.014 327.436 143.566 331.17 149.182 331.17Z" fill="#659F26"/>
<path d="M182.236 311.27C188.238 311.27 193.103 307.279 193.103 302.356C193.103 297.433 188.238 293.443 182.236 293.443C176.235 293.443 171.369 297.433 171.369 302.356C171.369 307.279 176.235 311.27 182.236 311.27Z" fill="#659F26"/>
<path d="M143.965 306.889C145.462 306.889 146.676 305.893 146.676 304.665C146.676 303.436 145.462 302.441 143.965 302.441C142.467 302.441 141.253 303.436 141.253 304.665C141.253 305.893 142.467 306.889 143.965 306.889Z" fill="#659F26"/>
<path d="M188.892 283.484C190.685 283.484 192.138 282.292 192.138 280.822C192.138 279.352 190.685 278.16 188.892 278.16C187.1 278.16 185.646 279.352 185.646 280.822C185.646 282.292 187.1 283.484 188.892 283.484Z" fill="#659F26"/>
<path d="M133.96 329.249C135.401 329.249 136.569 328.291 136.569 327.109C136.569 325.927 135.401 324.969 133.96 324.969C132.52 324.969 131.352 325.927 131.352 327.109C131.352 328.291 132.52 329.249 133.96 329.249Z" fill="#659F26"/>
<path d="M137.001 290.561C138.532 290.561 139.774 289.543 139.774 288.287C139.774 287.03 138.532 286.012 137.001 286.012C135.469 286.012 134.228 287.03 134.228 288.287C134.228 289.543 135.469 290.561 137.001 290.561Z" fill="#659F26"/>
<path d="M46.0162 227.374L-7.55957 304.024" stroke="#323232" stroke-width="5" stroke-miterlimit="10"/>
<path d="M42.8113 259.541L11.771 276.424L1.72559 254.435" stroke="#323232" stroke-width="5" stroke-miterlimit="10"/>
<path d="M51.4187 231.182C59.8597 231.182 66.7025 225.569 66.7025 218.646C66.7025 211.722 59.8597 206.109 51.4187 206.109C42.9776 206.109 36.1348 211.722 36.1348 218.646C36.1348 225.569 42.9776 231.182 51.4187 231.182Z" fill="#DF7DAB"/>
<path d="M0.554865 256.406C7.88406 256.406 13.8256 251.533 13.8256 245.521C13.8256 239.51 7.88406 234.636 0.554865 234.636C-6.77433 234.636 -12.7158 239.51 -12.7158 245.521C-12.7158 251.533 -6.77433 256.406 0.554865 256.406Z" fill="#DF7DAB"/>
<path d="M53.822 264.882C61.6504 264.882 67.9966 259.677 67.9966 253.255C67.9966 246.834 61.6504 241.629 53.822 241.629C45.9936 241.629 39.6475 246.834 39.6475 253.255C39.6475 259.677 45.9936 264.882 53.822 264.882Z" fill="#DF7DAB"/>
<path d="M12.2024 218.898C14.1651 218.898 15.7563 217.593 15.7563 215.983C15.7563 214.373 14.1651 213.068 12.2024 213.068C10.2396 213.068 8.64844 214.373 8.64844 215.983C8.64844 217.593 10.2396 218.898 12.2024 218.898Z" fill="#DF7DAB"/>
<path d="M84.8422 242.808C87.1794 242.808 89.074 241.254 89.074 239.337C89.074 237.42 87.1794 235.866 84.8422 235.866C82.505 235.866 80.6104 237.42 80.6104 239.337C80.6104 241.254 82.505 242.808 84.8422 242.808Z" fill="#DF7DAB"/>
<path d="M81.0413 216.169C83.0381 216.169 84.6569 214.841 84.6569 213.203C84.6569 211.565 83.0381 210.237 81.0413 210.237C79.0445 210.237 77.4258 211.565 77.4258 213.203C77.4258 214.841 79.0445 216.169 81.0413 216.169Z" fill="#DF7DAB"/>
<path d="M393.026 314.067C393.026 314.067 413.713 306.249 413.138 288.523C412.563 270.796 399.929 259.962 387.274 253.458C374.641 246.954 288.073 213.102 284.293 215.276C280.493 217.449 320.613 256.845 329.118 279.39C337.622 301.918 351.879 329.266 373.018 327.952C394.177 326.637 393.026 314.101 393.026 314.101V314.067Z" fill="#659F26"/>
<path d="M348.038 260.939C348.038 260.939 394.465 292.617 421.602 376.429" stroke="#323232" stroke-width="5" stroke-linecap="round" stroke-linejoin="round"/>
<path d="M232.402 259.473C232.402 259.473 245.816 289.011 238.318 356.816M217.262 313.022C217.262 313.022 233.511 332.282 235.956 363.893M290.928 290.14C290.928 290.14 244.974 331.878 239.92 364.449" stroke="#323232" stroke-width="5" stroke-miterlimit="10"/>
<path d="M314.784 299.161C319.441 293.644 314.384 284.156 303.49 277.969C292.595 271.781 279.988 271.237 275.331 276.753C270.674 282.269 275.731 291.757 286.626 297.945C297.521 304.133 310.128 304.677 314.784 299.161Z" fill="#DF7DAB"/>
<path d="M237.468 275.637C251.143 271.796 259.732 262.702 256.652 255.324C253.572 247.946 239.99 245.078 226.315 248.919C212.64 252.759 204.051 261.853 207.131 269.231C210.211 276.609 223.793 279.477 237.468 275.637Z" fill="#DF7DAB"/>
<path d="M235.229 314.897C235.911 306.456 228.288 299.168 218.201 298.617C208.114 298.067 199.384 304.464 198.702 312.904C198.019 321.345 205.643 328.633 215.729 329.184C225.816 329.734 234.546 323.337 235.229 314.897Z" fill="#DF7DAB"/>
<path d="M302.192 289.323C303.212 287.969 301.503 285.587 298.375 284.003C295.248 282.419 291.886 282.232 290.866 283.586C289.847 284.94 291.556 287.321 294.683 288.906C297.811 290.49 301.173 290.677 302.192 289.323Z" fill="#323232"/>
<path d="M233.624 263.805C237.095 262.814 239.235 260.421 238.403 258.461C237.571 256.501 234.082 255.716 230.611 256.708C227.139 257.7 225 260.092 225.832 262.052C226.664 264.012 230.152 264.797 233.624 263.805Z" fill="#323232"/>
<path d="M217.2 316.831C219.799 316.831 221.905 315.103 221.905 312.972C221.905 310.841 219.799 309.113 217.2 309.113C214.602 309.113 212.496 310.841 212.496 312.972C212.496 315.103 214.602 316.831 217.2 316.831Z" fill="#323232"/>
<path d="M392.307 285.338C392.307 285.338 338.793 228.992 356.706 217.618C374.62 206.244 392.307 285.338 392.307 285.338ZM392.307 285.338C392.307 285.338 458.373 238.815 473.082 252.952C487.79 267.089 392.307 285.338 392.307 285.338Z" fill="#DF7DAB"/>
<path d="M392.308 285.338C392.308 285.338 439.679 225.419 458.641 235.563C477.602 245.724 392.308 285.338 392.308 285.338Z" fill="#DF7DAB"/>
<path d="M392.307 285.338C392.307 285.338 360.754 218.764 381.892 212.091C403.031 205.418 392.307 285.338 392.307 285.338Z" fill="#DF7DAB"/>
<path d="M392.308 285.338C392.308 285.338 380.906 214.585 403.36 212.142C425.813 209.698 392.308 285.338 392.308 285.338Z" fill="#DF7DAB"/>
<path d="M392.308 285.321C392.308 285.321 418.171 217.18 439.803 222.69C461.434 228.216 392.308 285.321 392.308 285.321Z" fill="#DF7DAB"/>
<path d="M392.431 285.355C392.431 285.355 402.271 214.45 424.786 216.539C447.301 218.629 392.431 285.355 392.431 285.355Z" fill="#DF7DAB"/>
<path d="M374.763 231.924L392.307 285.136L354.857 356.984" stroke="#323232" stroke-width="5" stroke-linecap="round" stroke-linejoin="round"/>
<path d="M393.006 222.386L392.308 285.136L411.248 224.965" stroke="#323232" stroke-width="5" stroke-linecap="round" stroke-linejoin="round"/>
<path d="M429.901 225.083L392.308 285.136L438.241 239.675" stroke="#323232" stroke-width="5" stroke-linecap="round" stroke-linejoin="round"/>
<path d="M449.561 253.845L392.308 285.136" stroke="#323232" stroke-width="5" stroke-linecap="round" stroke-linejoin="round"/>
<path d="M600.016 213.085C600.016 213.085 580.131 223.617 565.114 205.115C550.097 186.614 524.665 193.152 524.665 193.152C524.665 193.152 551.535 169.292 578.179 175.324C604.823 181.357 632.001 199.352 600.016 213.102V213.085Z" fill="#219D9B"/>
<path d="M611.788 359.613C611.644 359.613 611.541 359.495 611.541 359.377C611.541 359.208 612.918 342.965 613.02 319.695C613.123 298.228 612.137 266.23 606.878 235.732C604.536 222.117 600.838 211.215 595.887 203.346C591.964 197.095 587.239 192.747 581.857 190.405C573.023 186.563 565.381 189.546 565.32 189.579C565.196 189.63 565.032 189.579 564.97 189.478C564.909 189.377 564.97 189.242 565.094 189.192C565.176 189.158 573.044 186.091 582.103 190.034C587.568 192.41 592.375 196.825 596.36 203.16C601.352 211.08 605.07 222.016 607.412 235.681C612.671 266.213 613.657 298.228 613.554 319.712C613.452 342.982 612.075 359.259 612.075 359.411C612.075 359.528 611.952 359.613 611.808 359.613H611.788Z" fill="#111111"/>
<path d="M629.167 233.727C629.167 233.727 612.609 218.275 627.831 205.317C643.054 192.36 691.781 192.832 695.191 234.35C695.191 234.35 673.868 222.016 660.946 223.111C648.004 224.206 645.149 237.939 629.167 233.727Z" fill="#219D9B"/>
<path d="M623.353 351.104C623.189 351.104 623.065 351.002 623.065 350.868C623.065 349.991 624.442 263.77 628.016 238.141C628.838 232.193 631.18 227.054 634.98 222.909C638.021 219.572 641.965 216.86 646.751 214.821C654.866 211.367 662.652 211.097 662.734 211.08C662.898 211.08 663.021 211.181 663.021 211.299C663.021 211.434 662.898 211.535 662.754 211.535C662.672 211.535 655.01 211.805 646.998 215.225C639.623 218.376 630.44 224.897 628.591 238.175C625.017 263.77 623.661 349.975 623.641 350.851C623.641 350.986 623.517 351.087 623.353 351.087V351.104Z" fill="#111111"/>
<path d="M528.814 323.571C528.814 323.571 524.521 293.915 556.855 283.602C589.19 273.29 601.68 295.044 599.03 299.997C599.03 299.997 599.297 317.151 578.446 310.866C557.615 304.581 531.094 313.882 528.794 323.554L528.814 323.571Z" fill="#219D9B"/>
<path d="M606.116 377.356C605.993 377.356 605.89 377.272 605.89 377.154C605.911 376.699 608.273 331.524 601.597 306.94C599.83 300.402 596.194 296.172 590.812 294.37C584.978 292.415 578.075 293.712 573.309 295.145C568.133 296.695 564.291 298.734 564.25 298.767C564.147 298.818 564.004 298.801 563.942 298.717C563.88 298.633 563.901 298.515 564.004 298.464C564.045 298.447 567.927 296.375 573.145 294.808C577.993 293.359 585.019 292.044 590.997 294.033C596.523 295.886 600.241 300.2 602.049 306.872C605.541 319.746 606.527 338.18 606.733 351.373C606.959 365.662 606.363 377.069 606.342 377.187C606.342 377.288 606.24 377.373 606.116 377.373V377.356Z" fill="#111111"/>
<path d="M651.127 261.125C651.127 261.125 713.207 315.651 728.512 376.783" stroke="#323232" stroke-width="5" stroke-linecap="round" stroke-linejoin="round"/>
<path d="M651.907 256.811C651.907 256.811 649.134 234.097 661.151 237.063C672.655 239.91 654.865 256.137 654.865 256.137C654.865 256.137 676.271 233.575 686.399 243.331C696.526 253.087 656.673 258.075 656.673 258.075C656.673 258.075 693.424 249.902 696.382 260.568C699.341 271.234 658.07 260.838 658.07 260.838C658.07 260.838 697.882 267.325 690.754 277.857C683.625 288.388 656.694 263.719 656.694 263.719C656.694 263.719 686.83 285.945 676.579 292.179C666.328 298.414 654.167 266.466 654.167 266.466C654.167 266.466 673.251 299.913 659.755 300.857C646.258 301.8 650.654 268.707 650.654 268.707C650.654 268.707 654.434 302.879 638.513 299.003C622.572 295.128 645.909 269.448 645.909 269.448C645.909 269.448 626.578 294.37 617.683 283.333C608.788 272.296 644.019 265.185 644.101 265.101C644.183 265.017 619.1 271.066 623.25 256.71C626.311 246.128 645.95 260.181 645.95 260.181C645.95 260.181 627.482 248.049 639.807 242C652.133 235.951 651.928 256.794 651.928 256.794L651.907 256.811Z" fill="#DF7DAB"/>
<path d="M644.162 265.809C642.519 263.888 644.224 260.585 647.942 258.462C651.661 256.322 656.016 256.171 657.659 258.092C659.302 260.012 657.597 263.315 653.879 265.438C650.161 267.578 645.806 267.73 644.162 265.809Z" fill="white"/>
<path d="M670.807 263.028C669.102 262.456 659.837 260.804 658.584 260.585C658.707 260.046 658.707 259.541 658.584 259.069C660.022 258.732 666.678 257.165 668.239 256.71C668.444 256.659 668.547 256.474 668.465 256.305C668.403 256.137 668.177 256.053 667.972 256.12C666.452 256.575 659.714 258.142 658.337 258.462C658.235 258.26 658.111 258.075 657.967 257.889C657.105 256.861 655.523 256.339 653.551 256.423C653.304 256.423 653.058 256.457 652.811 256.474L652.154 252.346C652.133 252.177 651.907 252.042 651.722 252.076C651.517 252.093 651.373 252.261 651.394 252.43L652.051 256.592C650.593 256.845 649.093 257.401 647.717 258.193C646.957 258.631 646.279 259.119 645.662 259.642L643.279 257.957C643.115 257.839 642.869 257.856 642.745 257.99C642.601 258.125 642.622 258.327 642.786 258.428L645.169 260.113C644.532 260.737 644.039 261.394 643.69 262.085C643.177 263.079 643.053 264.006 643.259 264.831L640.26 265.556C640.054 265.607 639.931 265.775 639.992 265.944C640.054 266.095 640.218 266.179 640.403 266.163C640.588 266.146 640.444 266.163 640.465 266.163L643.464 265.438C643.567 265.623 643.69 265.826 643.834 265.994C644.389 266.651 645.231 267.089 646.279 267.308L642.951 272.431C642.848 272.582 642.93 272.768 643.115 272.852C643.177 272.886 643.259 272.903 643.341 272.886C643.464 272.886 643.567 272.818 643.629 272.717L647.018 267.511C647.039 267.477 647.059 267.443 647.059 267.393C647.45 267.426 647.84 267.443 648.271 267.426C648.456 267.426 648.641 267.41 648.826 267.393C649.196 267.359 649.586 267.292 649.956 267.224C649.956 267.612 649.648 280.317 650.141 286.366C650.141 286.534 650.346 286.669 650.552 286.652C650.757 286.635 650.901 286.484 650.901 286.315C650.408 280.232 650.716 267.342 650.716 267.207C650.716 267.157 650.695 267.089 650.654 267.056C651.558 266.82 652.462 266.483 653.345 266.045C654.27 267.797 659.529 277.84 660.905 281.092C660.967 281.226 661.131 281.311 661.316 281.294C661.501 281.277 661.378 281.294 661.398 281.294C661.604 281.243 661.706 281.058 661.624 280.889C660.207 277.57 654.742 267.157 653.982 265.708C654.003 265.708 654.044 265.674 654.064 265.657C655.133 265.05 656.036 264.343 656.776 263.585L665.568 271.201C665.651 271.268 665.774 271.302 665.897 271.302C666.02 271.302 666.061 271.268 666.123 271.218C666.267 271.1 666.287 270.897 666.123 270.779L657.331 263.163C657.29 263.13 657.248 263.113 657.207 263.096C657.557 262.675 657.865 262.22 658.091 261.782C658.193 261.579 658.276 261.377 658.358 261.175C659.488 261.377 668.855 263.045 670.478 263.585C670.54 263.601 670.601 263.618 670.663 263.601C670.807 263.601 670.93 263.517 670.971 263.399C671.053 263.231 670.971 263.062 670.766 262.995L670.807 263.028ZM653.653 265.168C651.907 266.163 649.976 266.752 648.21 266.82C646.505 266.887 645.19 266.449 644.471 265.623C643.752 264.781 643.731 263.618 644.389 262.321C645.067 260.99 646.422 259.709 648.148 258.698C649.73 257.805 651.455 257.232 653.078 257.08C654.701 256.929 653.428 257.047 653.592 257.047C655.297 256.979 656.612 257.401 657.331 258.243C658.05 259.086 658.07 260.248 657.413 261.546C656.735 262.877 655.379 264.157 653.653 265.168Z" fill="#272520"/>
<path d="M715.549 342.51C715.549 342.51 690.384 310.849 728.553 263.585C728.553 263.585 758.217 320.976 715.549 342.51Z" fill="#01614A"/>
<path d="M707.578 329.316C707.578 329.316 680.133 296.274 636.603 306.282C636.603 306.282 648.908 344.026 707.578 329.316Z" fill="#01614A"/>
</g>
</g>
<defs>
<clipPath id="clip0_46_771">
<rect width="719" height="337" fill="white"/>
</clipPath>
</defs>
</svg>
