<svg width="719" height="337" viewBox="0 0 719 337" fill="none" xmlns="http://www.w3.org/2000/svg">
<g clip-path="url(#clip0_46_655)">
<mask id="mask0_46_655" style="mask-type:luminance" maskUnits="userSpaceOnUse" x="0" y="0" width="719" height="337">
<path d="M719 337H0V0H719V337Z" fill="white"/>
</mask>
<g mask="url(#mask0_46_655)">
<path d="M420.184 193.522C420.184 193.522 479.696 187.187 531.136 94.4948" stroke="#323232" stroke-width="5" stroke-linecap="round" stroke-linejoin="round"/>
<path d="M469.364 193C469.364 193 485.551 165.501 490.297 151.128M414.268 174.381C414.268 174.381 439.433 182.839 457.777 177.717M457.942 147.876C457.942 147.876 490.112 144.792 504.759 134.631M510.84 161.44C510.84 161.44 514.804 138.692 514.332 121" stroke="#323232" stroke-width="5" stroke-linecap="round" stroke-linejoin="round"/>
<path d="M417.657 188.501C421.39 188.501 424.416 190.983 424.416 194.045C424.416 197.106 421.39 199.588 417.657 199.588C413.924 199.588 410.898 197.106 410.898 194.045C410.898 190.983 413.924 188.501 417.657 188.501Z" fill="#DF7DAB"/>
<path d="M411.494 167.961C415.227 167.961 418.253 170.443 418.253 173.504C418.253 176.566 415.227 179.048 411.494 179.048C407.761 179.048 404.735 176.566 404.735 173.504C404.735 170.443 407.761 167.961 411.494 167.961Z" fill="#DF7DAB"/>
<path d="M467.535 190.102C471.268 190.102 474.294 192.584 474.294 195.645C474.294 198.707 471.268 201.189 467.535 201.189C463.802 201.189 460.776 198.707 460.776 195.645C460.776 192.584 463.802 190.102 467.535 190.102Z" fill="#DF7DAB"/>
<path d="M455.086 144.034C458.818 144.034 461.844 146.516 461.844 149.577C461.844 152.639 458.818 155.121 455.086 155.121C451.353 155.121 448.327 152.639 448.327 149.577C448.327 146.516 451.353 144.034 455.086 144.034Z" fill="#DF7DAB"/>
<path d="M509.792 157.783C513.525 157.783 516.55 160.265 516.55 163.327C516.55 166.389 513.525 168.871 509.792 168.871C506.059 168.871 503.033 166.389 503.033 163.327C503.033 160.265 506.059 157.783 509.792 157.783Z" fill="#DF7DAB"/>
<path d="M399.127 47.6012C397.998 46.7924 388.158 39.5637 387.993 29.2347C387.87 21.332 393.437 15.603 395.039 14.0023C402.188 6.85785 407.981 9.08206 420.122 0.977219C428.606 -4.68439 427.189 -6.72325 434.194 -10.1607C437.029 -11.5424 447.691 -16.7658 460.304 -13.7328C463.879 -12.8735 469.692 -10.7504 480.395 1.90396C496.028 20.3884 493.173 27.179 506.258 39.0751C512.154 44.4502 519.365 51.0049 531.218 53.0437C545.002 55.4196 560.8 50.9543 569.756 44.6356C571.051 43.7257 571.79 43.0685 573.598 42.007C582.103 37.0699 592.087 36.3622 597.407 36.6487C614.766 37.5923 628.365 51.5103 632.987 63.9456C633.994 66.6585 639.458 81.3685 630.687 91.6639C626.516 96.5672 621.956 97.1401 615.074 105.413C611.068 110.233 611.315 111.614 607.391 116.231C604.227 119.972 599.482 125.549 591.902 129.037C579.679 134.648 561.231 134.261 550.672 129.357C549.173 128.666 546.153 127.083 541.839 126.948C535.696 126.746 526.39 130.857 524.809 131.784C515.996 136.889 500.917 140.293 485.51 140.394C467.494 140.512 451.738 132.576 442.37 125.583C423.245 111.328 412.932 89.3554 413.569 70.4666C413.651 67.9896 414.576 61.6035 409.995 56.1946C407.386 53.1111 403.647 50.8195 399.107 47.5843L399.127 47.6012Z" fill="#01614A"/>
<path d="M447.074 22.6632C447.074 22.6632 508.641 -5.47635 539.25 -34.9807C539.25 -34.9807 490.605 30.431 459.236 51.0217" stroke="#323232" stroke-width="5" stroke-linecap="round" stroke-linejoin="round"/>
<path d="M482.798 72.2359L539.25 -34.9807L522.096 84.4185" stroke="#323232" stroke-width="5" stroke-linecap="round" stroke-linejoin="round"/>
<path d="M574.583 68.9839L538.921 -33.9528L605.562 56.4812" stroke="#323232" stroke-width="5" stroke-linecap="round" stroke-linejoin="round"/>
<path d="M451.306 3.67322L478.607 6.57141" stroke="#323232" stroke-width="5" stroke-linecap="round" stroke-linejoin="round"/>
<path d="M457.325 34.3234L485.284 28.7797" stroke="#323232" stroke-width="5" stroke-linecap="round" stroke-linejoin="round"/>
<path d="M512.482 64.3501L510.88 19.5965" stroke="#323232" stroke-width="5" stroke-linecap="round" stroke-linejoin="round"/>
<path d="M561.642 69.5062L569.304 53.0606" stroke="#323232" stroke-width="5" stroke-linecap="round" stroke-linejoin="round"/>
<path d="M550.117 74.7466L529.308 34.8795" stroke="#323232" stroke-width="5" stroke-linecap="round" stroke-linejoin="round"/>
<path d="M633.541 212.445C633.541 212.445 744.123 179.318 707.947 -23.3879" stroke="#323232" stroke-width="5" stroke-linecap="round" stroke-linejoin="round"/>
<path d="M700.943 181.592C700.943 181.592 722.595 137.833 713.371 86.272M642.211 178.071C642.211 178.071 687.857 164.591 703.593 130.908" stroke="#323232" stroke-width="5" stroke-linecap="round" stroke-linejoin="round"/>
<path d="M627.44 202.015C635.904 202.015 642.765 207.642 642.765 214.585C642.765 221.527 635.904 227.155 627.44 227.155C618.976 227.155 612.115 221.527 612.115 214.585C612.115 207.642 618.976 202.015 627.44 202.015Z" fill="#659F26"/>
<path d="M701.579 173.808C707.978 173.808 713.166 178.062 713.166 183.311C713.166 188.56 707.978 192.814 701.579 192.814C695.18 192.814 689.993 188.56 689.993 183.311C689.993 178.062 695.18 173.808 701.579 173.808Z" fill="#659F26"/>
<path d="M644.799 163.529C651.198 163.529 656.385 167.784 656.385 173.033C656.385 178.281 651.198 182.536 644.799 182.536C638.4 182.536 633.213 178.281 633.213 173.033C633.213 167.784 638.4 163.529 644.799 163.529Z" fill="#659F26"/>
<path d="M692.623 56.7844C692.623 56.7844 714.09 25.5445 710.824 -4.36423" stroke="#323232" stroke-width="5" stroke-linecap="round" stroke-linejoin="round"/>
<path d="M689.891 47.4832C696.29 47.4832 701.477 51.738 701.477 56.9866C701.477 62.2352 696.29 66.49 689.891 66.49C683.492 66.49 678.305 62.2352 678.305 56.9866C678.305 51.738 683.492 47.4832 689.891 47.4832Z" fill="#659F26"/>
<path d="M694.554 105.936C694.554 105.936 715.754 80.5935 715.138 45.9162" stroke="#323232" stroke-width="5" stroke-linecap="round" stroke-linejoin="round"/>
<path d="M694.286 98.9937C700.685 98.9937 705.873 103.249 705.873 108.497C705.873 113.746 700.685 118 694.286 118C687.887 118 682.7 113.746 682.7 108.497C682.7 103.249 687.887 98.9937 694.286 98.9937Z" fill="#659F26"/>
<path d="M328.049 -23.3542L326.118 -18.8047C326.118 -18.8047 277.349 47.618 258.306 29.2515C239.283 10.8682 314.963 -7.43093 328.049 -23.3373V-23.3542Z" fill="#219D9B"/>
<path d="M327.453 -21.3996C327.453 -21.3996 296.31 71.2081 271.864 54.0548C247.418 36.9015 305.514 10.211 327.453 -21.3996Z" fill="#219D9B"/>
<path d="M329.364 -15.4515C329.364 -15.4515 332.774 71.2249 307.958 68.5626C283.142 65.8834 313.854 -2.37595 328.049 -23.3542L329.364 -15.4515Z" fill="#219D9B"/>
<path d="M327.946 -20.1358C327.946 -20.1358 330.123 7.17809 339.121 27.179C348.119 47.18 351.303 60.7779 342.285 63.0527C333.267 65.3274 310.423 52.2855 327.946 -20.1189V-20.1358Z" fill="#219D9B"/>
<path d="M274.391 17.3217C274.391 17.3217 315.353 -5.2573 327.391 -21.3828C327.391 -21.3828 297.173 26.2185 286.018 37.3058" stroke="#323232" stroke-width="5" stroke-miterlimit="10"/>
<path d="M311.759 41.2656C311.759 41.2656 320.099 -5.71216 327.392 -21.3827C327.392 -21.3827 323.427 18.8551 334.027 39.3616" stroke="#323232" stroke-width="5" stroke-miterlimit="10"/>
<path d="M81.8637 1.85345C81.8637 1.85345 103.126 34.7952 86.6501 70.6857C70.1748 106.576 47.023 113.906 47.023 113.906C47.023 113.906 36.0942 64.8219 47.3722 42.5125C58.6502 20.2031 81.8637 1.87033 81.8637 1.87033V1.85345ZM118.492 21.1467C118.492 21.1467 152.737 55.9588 187.413 64.9736C222.089 73.9883 259.169 72.8594 266.544 77.2909C266.544 77.2909 262.209 35.4187 202.43 23.2698C142.65 11.1041 118.492 21.1467 118.492 21.1467ZM124.634 67.4505C124.634 67.4505 151.545 99.0106 144.684 133.233C137.822 167.455 107.563 179.773 103.475 194.921C103.475 194.921 87.287 143.646 89.9165 118.607C92.546 93.568 124.634 67.4505 124.634 67.4505ZM163.46 87.2998C163.46 87.2998 184.804 137.108 214.201 157.514C243.618 177.936 287.724 186.782 287.724 186.782C287.724 186.782 284.375 141.237 252.184 120.376C219.973 99.5161 163.46 87.2998 163.46 87.2998Z" fill="#01614A"/>
<path d="M88.7451 -19.5292C111.733 66.0351 241.584 147.673 241.584 147.673" stroke="#323232" stroke-width="5" stroke-miterlimit="10"/>
<path d="M115.739 123.662C115.739 123.662 116.499 85.143 127.88 49.7917M67.71 55.6892C67.71 55.6892 83.528 -6.1503 91.211 -27.2128M199.657 44.2986C199.657 44.2986 138.46 30.549 104.194 15.8895" stroke="#323232" stroke-width="5" stroke-miterlimit="10"/>
<path d="M23.1523 -6.97603C23.1523 -6.97603 100.619 6.50397 97.8462 18.8045C95.0729 31.0881 57.6027 25.5445 23.1523 -6.97603Z" fill="#219D9B"/>
<path d="M23.1524 -6.97589C23.1524 -6.97589 57.952 51.9991 37.9021 54.9816C17.8318 57.9472 14.586 13.2441 23.1524 -6.97589ZM47.7627 26.3534C47.7627 26.3534 129.318 31.6443 124.675 46.9609C119.724 63.3729 75.4339 50.9207 47.7627 26.3534Z" fill="#219D9B"/>
<path d="M47.7626 26.3534C47.7626 26.3534 91.9092 79.2961 69.045 83.8287C46.1808 88.3445 47.7626 26.3534 47.7626 26.3534ZM78.9467 56.4138C78.9467 56.4138 145.526 55.4364 148.443 66.1699C151.36 76.9033 114.63 81.0485 78.9467 56.4138Z" fill="#219D9B"/>
<path d="M78.9873 56.4138C78.9873 56.4138 89.0122 109.575 106.309 106.509C129.831 102.33 78.9873 56.4138 78.9873 56.4138ZM108.487 78.2851C108.487 78.2851 173.258 93.0625 165.041 107.334C156.824 121.606 108.487 78.2851 108.487 78.2851Z" fill="#219D9B"/>
<path d="M146.492 97.8479C146.492 97.8479 59.246 66.0351 12.3467 -25.7637" stroke="#323232" stroke-width="5" stroke-miterlimit="10"/>
<path d="M92.9569 81.9921L79.2959 56.9193C79.2959 56.9193 100.332 62.6651 118.82 65.3443M57.8697 56.7171L48.0092 26.7578C48.0092 26.7578 75.7831 37.7777 87.7596 39.648M26.9733 24.4999C26.9733 24.4999 23.707 3.38682 23.1729 -6.97593C23.1729 -6.97593 44.4963 5.56048 58.4038 8.72828" stroke="#323232" stroke-width="5" stroke-miterlimit="10"/>
<path d="M2.48587 -12.8229C2.48587 -12.8229 0.719191 22.4105 30.8761 65.5802C63.6214 112.474 173.608 141.607 154.133 172.14C134.679 202.672 68.1203 156.806 30.2598 82.4302C-5.23824 12.6543 -4.14947 -11.9298 -4.14947 -11.9298L2.50642 -12.8229H2.48587ZM-8.01153 12.2668C-8.01153 12.2668 -4.14947 49.0335 18.0984 89.6757C38.4359 126.847 66.9288 162.535 67.5246 197.617C68.1203 232.698 16.8864 221.797 16.4139 184.44C15.9209 147.067 23.9121 149.257 14.7294 115.844C5.54676 82.4302 -10.8875 44.0796 -11.3806 11.7613C-11.8736 -20.557 -7.99098 12.2499 -7.99098 12.2499L-8.01153 12.2668Z" fill="#659F26"/>
<path d="M114.095 152.964C114.095 152.964 14.7497 96.0619 -4.70438 -18.7203M37.4701 180.329C37.4701 180.329 35.5391 148.701 25.1444 121.253C17.7284 101.639 -11.8327 42.7485 -9.65521 -11.4748" stroke="#323232" stroke-width="5" stroke-miterlimit="10"/>
<path d="M160.461 44.5513L184.948 -20.0516" stroke="#323232" stroke-width="5" stroke-miterlimit="10"/>
<path d="M180.798 26.3196L176.156 3.21823L155.9 10.0762" stroke="#323232" stroke-width="5" stroke-miterlimit="10"/>
<path d="M157.318 41.9901C163.785 41.9901 169.027 46.2902 169.027 51.5946C169.027 56.899 163.785 61.1991 157.318 61.1991C150.851 61.1991 145.608 56.899 145.608 51.5946C145.608 46.2902 150.851 41.9901 157.318 41.9901Z" fill="#659F26"/>
<path d="M149.182 5.82997C154.798 5.82997 159.351 9.56425 159.351 14.1707C159.351 18.7772 154.798 22.5115 149.182 22.5115C143.566 22.5115 139.014 18.7772 139.014 14.1707C139.014 9.56425 143.566 5.82997 149.182 5.82997Z" fill="#659F26"/>
<path d="M182.236 25.7298C188.238 25.7298 193.103 29.7206 193.103 34.6435C193.103 39.5663 188.238 43.5571 182.236 43.5571C176.235 43.5571 171.369 39.5663 171.369 34.6435C171.369 29.7206 176.235 25.7298 182.236 25.7298Z" fill="#659F26"/>
<path d="M143.965 30.1108C145.462 30.1108 146.676 31.1066 146.676 32.335C146.676 33.5634 145.462 34.5592 143.965 34.5592C142.467 34.5592 141.253 33.5634 141.253 32.335C141.253 31.1066 142.467 30.1108 143.965 30.1108Z" fill="#659F26"/>
<path d="M188.892 53.5155C190.685 53.5155 192.138 54.7075 192.138 56.1778C192.138 57.6481 190.685 58.8401 188.892 58.8401C187.1 58.8401 185.646 57.6481 185.646 56.1778C185.646 54.7075 187.1 53.5155 188.892 53.5155Z" fill="#659F26"/>
<path d="M133.96 7.75086C135.401 7.75086 136.569 8.70894 136.569 9.8908C136.569 11.0727 135.401 12.0308 133.96 12.0308C132.52 12.0308 131.352 11.0727 131.352 9.8908C131.352 8.70894 132.52 7.75086 133.96 7.75086Z" fill="#659F26"/>
<path d="M137.001 46.4385C138.532 46.4385 139.774 47.457 139.774 48.7133C139.774 49.9696 138.532 50.988 137.001 50.988C135.469 50.988 134.228 49.9696 134.228 48.7133C134.228 47.457 135.469 46.4385 137.001 46.4385Z" fill="#659F26"/>
<path d="M46.0162 109.626L-7.55957 32.9753" stroke="#323232" stroke-width="5" stroke-miterlimit="10"/>
<path d="M42.8113 77.4594L11.771 60.5757L1.72559 82.5649" stroke="#323232" stroke-width="5" stroke-miterlimit="10"/>
<path d="M51.4187 105.818C59.8597 105.818 66.7025 111.431 66.7025 118.354C66.7025 125.278 59.8597 130.891 51.4187 130.891C42.9776 130.891 36.1348 125.278 36.1348 118.354C36.1348 111.431 42.9776 105.818 51.4187 105.818Z" fill="#DF7DAB"/>
<path d="M0.554865 80.5935C7.88406 80.5935 13.8256 85.4669 13.8256 91.4786C13.8256 97.4902 7.88406 102.364 0.554865 102.364C-6.77433 102.364 -12.7158 97.4902 -12.7158 91.4786C-12.7158 85.4669 -6.77433 80.5935 0.554865 80.5935Z" fill="#DF7DAB"/>
<path d="M53.822 72.118C61.6504 72.118 67.9966 77.3233 67.9966 83.7445C67.9966 90.1656 61.6504 95.371 53.822 95.371C45.9936 95.371 39.6475 90.1656 39.6475 83.7445C39.6475 77.3233 45.9936 72.118 53.822 72.118Z" fill="#DF7DAB"/>
<path d="M12.2024 118.102C14.1651 118.102 15.7563 119.407 15.7563 121.017C15.7563 122.627 14.1651 123.932 12.2024 123.932C10.2396 123.932 8.64844 122.627 8.64844 121.017C8.64844 119.407 10.2396 118.102 12.2024 118.102Z" fill="#DF7DAB"/>
<path d="M84.8422 94.1915C87.1794 94.1915 89.074 95.7455 89.074 97.6626C89.074 99.5796 87.1794 101.134 84.8422 101.134C82.505 101.134 80.6104 99.5796 80.6104 97.6626C80.6104 95.7455 82.505 94.1915 84.8422 94.1915Z" fill="#DF7DAB"/>
<path d="M81.0413 120.831C83.0381 120.831 84.6569 122.159 84.6569 123.797C84.6569 125.435 83.0381 126.762 81.0413 126.762C79.0445 126.762 77.4258 125.435 77.4258 123.797C77.4258 122.159 79.0445 120.831 81.0413 120.831Z" fill="#DF7DAB"/>
<path d="M393.026 22.9327C393.026 22.9327 413.713 30.7511 413.138 48.4773C412.563 66.2035 399.929 77.0381 387.274 83.5422C374.641 90.0463 288.073 123.898 284.293 121.724C280.493 119.551 320.613 80.1553 329.118 57.61C337.622 35.0816 351.879 7.73402 373.018 9.04832C394.177 10.3626 393.026 22.899 393.026 22.899V22.9327Z" fill="#659F26"/>
<path d="M348.038 76.0608C348.038 76.0608 394.465 44.3828 421.602 -39.4291" stroke="#323232" stroke-width="5" stroke-linecap="round" stroke-linejoin="round"/>
<path d="M232.402 77.5267C232.402 77.5267 245.816 47.9887 238.318 -19.8157M217.262 23.9774C217.262 23.9774 233.511 4.71787 235.956 -26.8927M290.928 46.8597C290.928 46.8597 244.974 5.1223 239.92 -27.4487" stroke="#323232" stroke-width="5" stroke-miterlimit="10"/>
<path d="M314.784 37.8394C319.441 43.3557 314.384 52.8436 303.49 59.0314C292.595 65.2191 279.988 65.7634 275.331 60.2471C270.674 54.7309 275.731 45.2429 286.626 39.0552C297.521 32.8674 310.128 32.3231 314.784 37.8394Z" fill="#DF7DAB"/>
<path d="M237.468 61.3633C251.143 65.2036 259.732 74.2978 256.652 81.6758C253.572 89.0538 239.99 91.9216 226.315 88.0813C212.64 84.241 204.051 75.1468 207.131 67.7688C210.211 60.3908 223.793 57.523 237.468 61.3633Z" fill="#DF7DAB"/>
<path d="M235.227 22.1005C235.908 30.5412 228.284 37.8304 218.198 38.3814C208.111 38.9325 199.382 32.5366 198.7 24.0959C198.018 15.6552 205.643 8.36594 215.729 7.81493C225.816 7.26392 234.545 13.6598 235.227 22.1005Z" fill="#DF7DAB"/>
<path d="M302.192 47.6767C303.212 49.0306 301.503 51.4126 298.375 52.997C295.248 54.5814 291.886 54.7682 290.866 53.4142C289.847 52.0603 291.556 49.6784 294.683 48.094C297.811 46.5096 301.173 46.3228 302.192 47.6767Z" fill="#323232"/>
<path d="M233.624 73.1947C237.095 74.1863 239.235 76.5788 238.403 78.5386C237.571 80.4984 234.082 81.2833 230.611 80.2918C227.139 79.3002 225 76.9076 225.832 74.9478C226.664 72.988 230.152 72.2031 233.624 73.1947Z" fill="#323232"/>
<path d="M217.2 20.1694C219.799 20.1694 221.905 21.897 221.905 24.0281C221.905 26.1591 219.799 27.8867 217.2 27.8867C214.602 27.8867 212.496 26.1591 212.496 24.0281C212.496 21.897 214.602 20.1694 217.2 20.1694Z" fill="#323232"/>
<path d="M392.307 51.662C392.307 51.662 338.793 108.008 356.706 119.382C374.62 130.756 392.307 51.662 392.307 51.662ZM392.307 51.662C392.307 51.662 458.373 98.1849 473.082 84.0477C487.79 69.9106 392.307 51.662 392.307 51.662Z" fill="#DF7DAB"/>
<path d="M392.308 51.662C392.308 51.662 439.679 111.581 458.641 101.437C477.602 91.2763 392.308 51.662 392.308 51.662Z" fill="#DF7DAB"/>
<path d="M392.307 51.662C392.307 51.662 360.754 118.236 381.892 124.909C403.031 131.582 392.307 51.662 392.307 51.662Z" fill="#DF7DAB"/>
<path d="M392.308 51.662C392.308 51.662 380.906 122.415 403.36 124.858C425.813 127.302 392.308 51.662 392.308 51.662Z" fill="#DF7DAB"/>
<path d="M392.308 51.6789C392.308 51.6789 418.171 119.82 439.803 114.31C461.434 108.784 392.308 51.6789 392.308 51.6789Z" fill="#DF7DAB"/>
<path d="M392.431 51.6452C392.431 51.6452 402.271 122.55 424.786 120.461C447.301 118.371 392.431 51.6452 392.431 51.6452Z" fill="#DF7DAB"/>
<path d="M374.763 105.077L392.307 51.8642L354.857 -19.9842" stroke="#323232" stroke-width="5" stroke-linecap="round" stroke-linejoin="round"/>
<path d="M393.006 114.614L392.308 51.8643L411.248 112.036" stroke="#323232" stroke-width="5" stroke-linecap="round" stroke-linejoin="round"/>
<path d="M429.901 111.918L392.308 51.8642L438.241 97.3255" stroke="#323232" stroke-width="5" stroke-linecap="round" stroke-linejoin="round"/>
<path d="M449.561 83.1547L392.308 51.8642" stroke="#323232" stroke-width="5" stroke-linecap="round" stroke-linejoin="round"/>
<path d="M600.016 123.915C600.016 123.915 580.131 113.384 565.114 131.885C550.097 150.386 524.665 143.848 524.665 143.848C524.665 143.848 551.535 167.708 578.179 161.676C604.823 155.643 632.001 137.648 600.016 123.898V123.915Z" fill="#219D9B"/>
<path d="M611.788 -22.6127C611.644 -22.6127 611.541 -22.4948 611.541 -22.3768C611.541 -22.2083 612.918 -5.96495 613.02 17.3049C613.123 38.7718 612.137 70.77 606.878 101.268C604.536 114.883 600.838 125.785 595.887 133.654C591.964 139.905 587.239 144.253 581.857 146.595C573.023 150.437 565.381 147.454 565.32 147.421C565.196 147.37 565.032 147.421 564.97 147.522C564.909 147.623 564.97 147.758 565.094 147.808C565.176 147.842 573.044 150.909 582.103 146.966C587.568 144.59 592.375 140.175 596.36 133.84C601.352 125.92 605.07 114.984 607.412 101.319C612.671 70.7868 613.657 38.7718 613.554 17.2881C613.452 -5.9818 612.075 -22.2589 612.075 -22.4105C612.075 -22.5285 611.952 -22.6127 611.808 -22.6127H611.788Z" fill="#111111"/>
<path d="M629.167 103.274C629.167 103.274 612.609 118.725 627.831 131.683C643.054 144.64 691.781 144.169 695.191 102.65C695.191 102.65 673.868 114.984 660.946 113.889C648.004 112.794 645.149 99.0611 629.167 103.274Z" fill="#219D9B"/>
<path d="M623.353 -14.1035C623.189 -14.1035 623.065 -14.0024 623.065 -13.8676C623.065 -12.9914 624.442 73.2301 628.016 98.8589C628.838 104.807 631.18 109.946 634.98 114.091C638.021 117.428 641.965 120.14 646.751 122.179C654.866 125.634 662.652 125.903 662.734 125.92C662.898 125.92 663.021 125.819 663.021 125.701C663.021 125.566 662.898 125.465 662.754 125.465C662.672 125.465 655.01 125.195 646.998 121.775C639.623 118.624 630.44 112.103 628.591 98.8252C625.017 73.2301 623.661 -12.9745 623.641 -13.8507C623.641 -13.9855 623.517 -14.0866 623.353 -14.0866V-14.1035Z" fill="#111111"/>
<path d="M528.814 13.4294C528.814 13.4294 524.521 43.0854 556.855 53.3976C589.19 63.7098 601.68 41.9565 599.03 37.0026C599.03 37.0026 599.297 19.8493 578.446 26.1343C557.615 32.4194 531.094 23.1182 528.794 13.4463L528.814 13.4294Z" fill="#219D9B"/>
<path d="M606.116 -40.3558C605.993 -40.3558 605.89 -40.2715 605.89 -40.1536C605.911 -39.6986 608.273 5.47625 601.597 30.0604C599.83 36.5982 596.194 40.8275 590.812 42.6305C584.978 44.5851 578.075 43.2876 573.309 41.8554C568.133 40.3052 564.291 38.2663 564.25 38.2326C564.147 38.1821 564.004 38.1989 563.942 38.2832C563.88 38.3674 563.901 38.4854 564.004 38.5359C564.045 38.5528 567.927 40.6253 573.145 42.1924C577.993 43.6415 585.019 44.9558 590.997 42.9675C596.523 41.114 600.241 36.8004 602.049 30.1278C605.541 17.2544 606.527 -1.17951 606.733 -14.3731C606.959 -28.6619 606.363 -40.0693 606.342 -40.1873C606.342 -40.2884 606.24 -40.3726 606.116 -40.3726V-40.3558Z" fill="#111111"/>
<path d="M651.127 75.8755C651.127 75.8755 713.207 21.3489 728.512 -39.7829" stroke="#323232" stroke-width="5" stroke-linecap="round" stroke-linejoin="round"/>
<path d="M651.907 80.1891C651.907 80.1891 649.134 102.903 661.151 99.9373C672.655 97.0897 654.865 80.8631 654.865 80.8631C654.865 80.8631 676.271 103.425 686.399 93.6691C696.526 83.913 656.673 78.9254 656.673 78.9254C656.673 78.9254 693.424 87.0976 696.382 76.4316C699.341 65.7655 658.07 76.162 658.07 76.162C658.07 76.162 697.882 69.6747 690.754 59.1435C683.625 48.6122 656.694 73.2806 656.694 73.2806C656.694 73.2806 686.83 51.0555 676.579 44.821C666.328 38.5865 654.167 70.5341 654.167 70.5341C654.167 70.5341 673.251 37.0868 659.755 36.1432C646.258 35.1996 650.654 68.293 650.654 68.293C650.654 68.293 654.434 34.1212 638.513 37.9967C622.572 41.8722 645.909 67.5516 645.909 67.5516C645.909 67.5516 626.578 42.6305 617.683 53.6672C608.788 64.704 644.019 71.8147 644.101 71.8989C644.183 71.9832 619.1 65.934 623.25 80.2902C626.311 90.872 645.95 76.8191 645.95 76.8191C645.95 76.8191 627.482 88.9511 639.807 95.0003C652.133 101.049 651.928 80.206 651.928 80.206L651.907 80.1891Z" fill="#DF7DAB"/>
<path d="M644.162 71.1913C642.519 73.1122 644.224 76.4147 647.942 78.5378C651.661 80.6778 656.016 80.8295 657.659 78.9086C659.302 76.9877 657.597 73.685 653.879 71.5619C650.161 69.422 645.806 69.2704 644.162 71.1913Z" fill="white"/>
<path d="M670.807 73.9715C669.102 74.5444 659.837 76.1957 658.584 76.4148C658.707 76.954 658.707 77.4595 658.584 77.9313C660.022 78.2683 666.678 79.8353 668.239 80.2903C668.444 80.3408 668.547 80.5262 668.465 80.6947C668.403 80.8632 668.177 80.9474 667.972 80.88C666.452 80.4251 659.714 78.858 658.337 78.5378C658.235 78.74 658.111 78.9254 657.967 79.1108C657.105 80.1386 655.523 80.6609 653.551 80.5767C653.304 80.5767 653.058 80.543 652.811 80.5262L652.154 84.6544C652.133 84.8229 651.907 84.9577 651.722 84.924C651.517 84.9072 651.373 84.7387 651.394 84.5702L652.051 80.4082C650.593 80.1554 649.093 79.5994 647.717 78.8074C646.957 78.3693 646.279 77.8807 645.662 77.3583L643.279 79.0433C643.115 79.1613 642.869 79.1445 642.745 79.0097C642.601 78.8749 642.622 78.6727 642.786 78.5716L645.169 76.8866C644.532 76.2631 644.039 75.6059 643.69 74.9151C643.177 73.9209 643.053 72.9942 643.259 72.1686L640.26 71.444C640.054 71.3935 639.931 71.2249 639.992 71.0564C640.054 70.9048 640.218 70.8206 640.403 70.8374C640.588 70.8543 640.444 70.8374 640.465 70.8374L643.464 71.5619C643.567 71.3766 643.69 71.1744 643.834 71.0059C644.389 70.3488 645.231 69.9106 646.279 69.6916L642.951 64.5692C642.848 64.4175 642.93 64.2322 643.115 64.1479C643.177 64.1142 643.259 64.0974 643.341 64.1143C643.464 64.1143 643.567 64.1817 643.629 64.2828L647.018 69.4894C647.039 69.5231 647.059 69.5568 647.059 69.6073C647.45 69.5736 647.84 69.5568 648.271 69.5737C648.456 69.5737 648.641 69.5905 648.826 69.6073C649.196 69.641 649.586 69.7084 649.956 69.7758C649.956 69.3883 649.648 56.6834 650.141 50.6343C650.141 50.4658 650.346 50.331 650.552 50.3478C650.757 50.3647 650.901 50.5163 650.901 50.6848C650.408 56.7677 650.716 69.6579 650.716 69.7927C650.716 69.8432 650.695 69.9106 650.654 69.9443C651.558 70.1802 652.462 70.5172 653.345 70.9553C654.27 69.2029 659.529 59.1604 660.905 55.9083C660.967 55.7735 661.131 55.6892 661.316 55.7061C661.501 55.7229 661.378 55.7061 661.398 55.7061C661.604 55.7566 661.706 55.942 661.624 56.1105C660.207 59.43 654.742 69.8432 653.982 71.2923C654.003 71.2923 654.044 71.3261 654.064 71.3429C655.133 71.9495 656.036 72.6572 656.776 73.4154L665.568 65.7993C665.651 65.7319 665.774 65.6982 665.897 65.6982C666.02 65.6982 666.061 65.7319 666.123 65.7824C666.267 65.9004 666.287 66.1026 666.123 66.2205L657.331 73.8367C657.29 73.8704 657.248 73.8872 657.207 73.9041C657.557 74.3253 657.865 74.7803 658.091 75.2184C658.193 75.4206 658.276 75.6228 658.358 75.825C659.488 75.6228 668.855 73.9546 670.478 73.4154C670.54 73.3986 670.601 73.3817 670.663 73.3986C670.807 73.3986 670.93 73.4829 670.971 73.6008C671.053 73.7693 670.971 73.9378 670.766 74.0052L670.807 73.9715ZM653.653 71.8316C651.907 70.8374 649.976 70.2477 648.21 70.1803C646.505 70.1129 645.19 70.5509 644.471 71.3766C643.752 72.2191 643.731 73.3817 644.389 74.6792C645.067 76.0103 646.422 77.2909 648.148 78.3019C649.73 79.195 651.455 79.7679 653.078 79.9196C654.701 80.0712 653.428 79.9533 653.592 79.9533C655.297 80.0207 656.612 79.5994 657.331 78.7569C658.05 77.9144 658.07 76.7518 657.413 75.4543C656.735 74.1232 655.379 72.8426 653.653 71.8316Z" fill="#272520"/>
<path d="M715.549 -5.50997C715.549 -5.50997 690.384 26.1512 728.553 73.4154C728.553 73.4154 758.217 16.0243 715.549 -5.50997Z" fill="#01614A"/>
<path d="M707.578 7.68359C707.578 7.68359 680.133 40.7265 636.603 30.7176C636.603 30.7176 648.908 -7.02646 707.578 7.68359Z" fill="#01614A"/>
</g>
</g>
<defs>
<clipPath id="clip0_46_655">
<rect width="719" height="337" fill="white" transform="matrix(1 0 0 -1 0 337)"/>
</clipPath>
</defs>
</svg>
