<svg width="39" height="38" viewBox="0 0 39 38" fill="none" xmlns="http://www.w3.org/2000/svg">
<g clip-path="url(#clip0_35_820)">
<path d="M38.1508 19.3555C38.1508 17.7987 38.0239 16.6626 37.7491 15.4844H19.8848V22.5112H30.3707C30.1594 24.2575 29.0178 26.8873 26.4808 28.6545L26.4452 28.8897L32.0936 33.2442L32.4849 33.2831C36.0789 29.98 38.1508 25.12 38.1508 19.3555Z" fill="#4285F4"/>
<path d="M19.8843 37.8695C25.0216 37.8695 29.3343 36.1863 32.4845 33.2831L26.4803 28.6545C24.8736 29.7695 22.7172 30.5479 19.8843 30.5479C14.8527 30.5479 10.5822 27.245 9.05993 22.6796L8.83679 22.6985L2.96353 27.2218L2.88672 27.4343C6.01559 33.6196 12.4425 37.8695 19.8843 37.8695Z" fill="#34A853"/>
<path d="M9.06014 22.6796C8.65846 21.5015 8.426 20.2391 8.426 18.9347C8.426 17.6303 8.65846 16.368 9.03901 15.1898L9.02837 14.9389L3.0815 10.343L2.88693 10.4351C1.59737 13.0018 0.857422 15.8841 0.857422 18.9347C0.857422 21.9853 1.59737 24.8675 2.88693 27.4343L9.06014 22.6796Z" fill="#FBBC05"/>
<path d="M19.8843 7.32138C23.4571 7.32138 25.8672 8.85719 27.2414 10.1406L32.6113 4.92303C29.3133 1.87244 25.0216 0 19.8843 0C12.4425 0 6.01559 4.24976 2.88672 10.4351L9.0388 15.1898C10.5822 10.6245 14.8527 7.32138 19.8843 7.32138Z" fill="#EB4335"/>
</g>
<defs>
<clipPath id="clip0_35_820">
<rect width="37.3109" height="38" fill="white" transform="translate(0.857422)"/>
</clipPath>
</defs>
</svg>
